<?xml version="1.0" standalone="no"?>
<!DOCTYPE svg PUBLIC "-//W3C//DTD SVG 20010904//EN"
 "http://www.w3.org/TR/2001/REC-SVG-20010904/DTD/svg10.dtd">
<svg version="1.0" xmlns="http://www.w3.org/2000/svg"
 width="760.000000pt" height="450.000000pt" viewBox="0 0 760.000000 450.000000"
 preserveAspectRatio="xMidYMid meet">

<g transform="translate(0.000000,450.000000) scale(0.100000,-0.100000)"
fill="#000000" stroke="none">
<path d="M0 2250 l0 -2250 3800 0 3800 0 0 2250 0 2250 -3800 0 -3800 0 0
-2250z m2845 1015 c144 -40 258 -120 305 -211 21 -42 25 -63 25 -139 0 -80 -4
-97 -30 -150 -36 -72 -161 -202 -254 -265 -127 -85 -362 -190 -531 -236 -36
-10 -67 -21 -70 -25 -7 -10 -232 -56 -315 -65 -63 -7 -105 -26 -105 -48 0 -7
40 -36 89 -64 49 -28 196 -120 328 -205 243 -157 340 -216 473 -284 63 -32 75
-42 75 -63 0 -74 -152 0 -605 294 -302 196 -392 248 -406 233 -7 -6 -85 -142
-174 -302 -89 -159 -167 -296 -173 -303 -14 -18 -61 -11 -65 10 -2 10 76 157
173 329 97 171 175 312 173 314 -2 1 -31 17 -65 34 -52 26 -63 36 -63 56 0 33
27 45 98 45 72 0 122 9 122 22 0 14 461 831 474 841 6 4 20 6 31 5 46 -6 28
-48 -194 -438 -120 -212 -215 -388 -212 -393 4 -4 47 0 97 8 501 87 910 295
1030 525 23 45 28 68 28 125 0 142 -86 228 -284 282 -80 22 -355 25 -470 5
-278 -49 -570 -164 -853 -336 -60 -36 -115 -66 -122 -66 -19 0 -38 27 -32 45
16 39 367 231 567 309 132 51 308 100 436 121 122 19 416 14 499 -10z m808
-957 c11 -13 17 -37 17 -69 0 -47 1 -49 47 -76 62 -36 157 -43 237 -18 61 19
86 11 86 -27 0 -33 -62 -52 -175 -53 -88 0 -107 3 -157 26 l-56 27 -16 -42
c-26 -68 -111 -190 -172 -245 -49 -45 -61 -51 -99 -51 -34 0 -47 5 -59 22 -35
49 -7 184 61 295 42 69 133 169 164 178 10 4 19 13 19 20 0 21 42 46 65 39 11
-3 28 -15 38 -26z m1812 -29 c4 -6 19 -7 35 -4 19 4 33 1 44 -10 21 -21 20
-25 -8 -93 -48 -114 -76 -275 -58 -337 11 -40 41 -43 99 -10 65 39 187 149
263 238 53 62 70 77 90 75 19 -2 26 -10 28 -30 3 -24 -16 -47 -135 -165 -159
-159 -239 -213 -314 -213 -77 0 -109 53 -109 182 l0 68 -67 -69 c-75 -75 -134
-111 -186 -111 -45 0 -57 15 -57 72 0 110 137 334 243 398 35 22 121 27 132 9z
m-784 -21 c16 -29 6 -260 -16 -383 -61 -339 -237 -621 -453 -723 -63 -30 -89
-36 -158 -40 l-84 -4 -36 36 c-35 35 -36 39 -32 90 12 147 160 302 354 372 77
28 122 31 131 8 11 -28 -10 -45 -84 -69 -89 -28 -153 -65 -216 -124 -81 -75
-130 -178 -106 -222 10 -20 17 -21 75 -16 236 19 450 288 529 667 19 89 32
290 18 275 -5 -5 -34 -41 -65 -80 -117 -145 -195 -205 -269 -205 -53 0 -69 15
-69 64 0 53 57 165 134 263 31 40 48 52 69 53 15 0 27 -2 27 -4 0 -2 2 -11 5
-18 3 -8 -17 -43 -45 -78 -61 -76 -120 -172 -120 -194 0 -61 131 55 258 230
29 39 52 74 52 79 0 19 35 45 61 45 19 0 32 -7 40 -22z"/>
<path d="M3534 2181 c-72 -44 -165 -193 -180 -288 -6 -39 -5 -43 15 -43 65 0
256 292 220 337 -15 17 -18 17 -55 -6z"/>
<path d="M5353 2191 c-79 -49 -231 -311 -180 -311 53 0 278 270 261 313 -8 23
-42 21 -81 -2z"/>
</g>
</svg>
